<svg width="25" height="25" viewBox="0 0 25 25" fill="none" xmlns="http://www.w3.org/2000/svg">
<rect width="25" height="25" rx="4" fill="#F5F3F3"/>
<path d="M11.0158 17.9121C11.0158 19.0587 10.0791 19.9967 8.93461 19.9967H8.4401C8.22495 19.9967 8.05019 19.8208 8.05019 19.6053V19.292C7.28902 19.8403 6.50803 20.1717 5.33598 20.1717C3.63731 20.1717 2 19.3708 2 16.8093V16.6338C2 14.3457 3.44326 13.3296 6.80008 13.3296H7.8555V12.6257C7.8555 11.5106 7.30818 11.2756 6.39114 11.2756C5.45313 11.2756 4.4381 11.295 3.73621 11.3735L3.15096 11.4128H3.05283C2.83768 11.4128 2.70163 11.3154 2.70163 11.0606V9.47673C2.70163 9.26211 2.81917 9.10558 3.07134 9.04696C3.7942 8.87098 5.14154 8.6369 6.44913 8.6369C9.25902 8.6369 11.0156 9.76943 11.0156 12.6256V17.9121H11.0158ZM7.91401 15.2065H6.80008C5.45326 15.2065 5.08316 15.6756 5.08316 16.6338V16.8093C5.08316 17.649 5.47423 17.7862 6.31217 17.7862C6.31748 17.7862 6.32421 17.7862 6.32991 17.7862C7.22183 17.7804 7.91414 16.9898 7.91414 16.0955V15.2065H7.91401Z" fill="#C4161C"/>
<path d="M22.6655 19.0966C22.6655 19.4095 22.5877 19.5264 22.0617 19.6634C20.9486 19.9578 19.4064 20.1717 17.9025 20.1717C14.7212 20.1717 13.0046 18.3538 13.0046 15.1669V13.6425C13.0046 10.5724 14.6038 8.63685 17.9025 8.63685C18.2935 8.63685 18.9386 8.69507 19.5052 8.77314V5.3897C19.5052 5.17585 19.68 5 19.8955 5H22.2558C22.4709 5 22.6655 5.17585 22.6655 5.3897V19.0966ZM19.5053 11.354C19.035 11.295 18.3727 11.257 17.9026 11.257C16.5178 11.257 16.1671 12.2727 16.1671 13.6425V15.1668C16.1671 16.5746 16.5178 17.5722 17.9026 17.5722C18.5488 17.5722 19.1332 17.5136 19.5053 17.4545V11.354Z" fill="#C4161C"/>
</svg>
