<svg width="239" height="318" viewBox="0 0 239 318" fill="none" xmlns="http://www.w3.org/2000/svg">
<g opacity="0.05">
<path d="M125.751 269.944C128.608 273.349 132.736 275.578 134.596 280.369C132.182 280.26 130.851 278.908 129.42 277.866C127.984 276.824 126.643 275.653 125.646 274.845C120.476 276.012 115.704 277.348 110.848 278.126C99.6898 279.916 88.5415 281.99 77.1838 282.064C59.3844 282.184 42.3179 278.679 25.9544 271.674C23.5064 270.627 20.9636 269.794 18.4857 268.807C17.5633 268.438 16.7107 267.915 15.2997 267.187C16.3118 266.474 16.9001 265.731 17.5732 265.636C19.7072 265.347 21.871 265.163 24.0199 265.182C41.944 265.312 59.868 265.472 77.792 265.661C90.6854 265.801 103.399 267.581 116.053 269.899C117.055 270.084 118.058 270.258 119.065 270.388C119.249 270.413 119.469 270.198 120.012 269.929C114.393 264.519 108.864 259.195 103.185 253.73C99.8942 256.293 95.8956 256.946 91.9119 257.709C77.827 260.396 63.7869 259.494 49.7917 257.125C38.2246 255.171 26.8369 252.504 16.1972 247.348C14.492 246.521 12.7819 245.598 11.3161 244.422C10.5433 243.798 9.78042 242.437 9.93996 241.585C10.0945 240.772 11.3609 239.934 12.3132 239.575C13.5946 239.092 15.0405 239.042 16.4215 238.832C36.4994 235.741 56.2483 237.78 75.7927 242.721C83.1867 244.591 90.5408 246.605 98.204 248.63C97.87 247.961 97.6705 247.323 97.2866 246.825C94.9582 243.798 92.6448 240.757 90.1918 237.83C89.5486 237.062 88.4318 236.693 87.1155 235.881C87.0956 235.736 86.9759 234.884 86.8513 234.021C73.9579 233.732 62.8595 228.193 51.7561 222.898C36.4546 215.598 23.0427 205.597 11.2811 193.382C8.72339 190.724 6.15574 188.067 3.603 185.404C2.9 184.671 2.20198 183.929 1.53886 183.156C0.636431 182.099 -0.639984 180.977 0.372138 179.501C1.35933 178.06 2.85014 178.609 4.16141 179.242C7.82101 181.007 11.5554 182.642 15.1202 184.587C36.7886 196.403 57.8537 209.192 77.8768 223.651C78.6496 224.209 79.5221 224.638 80.7835 224.698C79.896 223.356 78.9936 222.025 78.1211 220.674C74.7457 215.429 71.4102 210.154 67.9849 204.939C67.4016 204.046 66.544 202.934 65.6366 202.73C61.8025 201.858 58.5766 199.853 55.4755 197.64C37.9254 185.14 23.7008 169.529 12.4927 151.152C9.91005 146.914 7.51683 142.556 5.05882 138.243C4.68489 137.585 4.26112 136.892 4.15143 136.169C4.07166 135.641 4.31596 134.838 4.70984 134.534C5.10372 134.235 6.0161 134.155 6.42493 134.419C7.59162 135.172 8.70346 136.055 9.67071 137.047C13.4899 140.966 17.3439 144.855 20.9985 148.928C33.7473 163.133 47.1342 176.779 58.9406 191.816C59.2897 192.265 59.7633 192.614 60.5859 192.664C60.1671 191.811 59.7682 190.944 59.3295 190.101C55.271 182.308 51.2176 174.52 47.1342 166.742C46.6107 165.745 46.0572 164.673 45.2495 163.925C34.9538 154.328 27.2757 142.87 21.2827 130.216C17.2791 121.765 14.7264 112.851 12.9464 103.697C12.2933 100.326 11.5654 96.9658 10.8873 93.6004C10.7128 92.7328 10.4385 91.8254 10.5432 90.9729C10.618 90.3397 11.1116 89.4422 11.6352 89.2527C12.1936 89.0483 13.2455 89.3176 13.6494 89.7663C14.482 90.6936 15.1501 91.8254 15.6637 92.9771C19.3831 101.353 23.0527 109.749 26.7322 118.141C27.3954 119.646 28.0385 121.162 29.2202 122.598C29.1454 121.87 29.1703 121.117 28.9858 120.414C24.3589 102.724 23.6011 84.7505 24.9423 66.6121C25.1467 63.8201 25.2714 61.018 25.4509 58.226C25.5157 57.2089 25.5755 56.1918 25.7251 55.1846C25.9295 53.7786 26.1888 52.2729 27.8889 51.9538C29.7536 51.6048 30.7957 52.941 31.3142 54.3919C32.5557 57.852 33.8719 61.3271 34.6248 64.912C36.5942 74.3003 36.5244 83.878 36.7338 93.4159C37.0229 106.768 37.1925 120.125 37.4168 133.482C37.4218 133.861 37.347 134.28 37.4717 134.619C39.0721 139.131 40.7025 143.633 42.3229 148.135C42.5771 148.066 42.8314 147.991 43.0857 147.921C42.986 146.684 42.9361 145.448 42.7816 144.216C41.1861 131.383 41.7196 118.554 42.9362 105.736C43.4198 100.665 44.0081 95.6047 44.5864 90.5441C44.731 89.2827 44.8108 87.9465 45.2994 86.8147C45.6534 85.997 46.5857 85.0198 47.3735 84.9101C48.1313 84.8054 49.3429 85.5134 49.8066 86.2263C50.6891 87.5925 51.2924 89.178 51.8209 90.7335C53.8501 96.7165 54.0695 102.979 54.3686 109.196C55.2411 127.26 54.9769 145.318 53.895 163.367C53.88 163.621 53.895 163.891 53.8152 164.125C52.2048 168.886 53.8351 172.935 56.2981 176.978C59.1351 181.645 61.638 186.511 64.8488 191.128C64.7042 190.226 64.6444 189.298 64.4051 188.421C60.3616 173.887 59.4841 159.089 60.9798 144.142C61.8922 135.023 63.1138 125.933 64.3054 116.839C64.5996 114.586 65.1031 112.307 65.9008 110.183C66.7285 107.979 68.6181 107.9 69.8446 109.929C70.6224 111.22 71.1659 112.686 71.6196 114.137C75.5584 126.617 77.822 139.42 77.0891 152.488C76.1767 168.747 74.5014 184.956 73.3696 201.204C73.2001 203.618 73.5591 206.499 74.7706 208.494C77.9865 213.809 81.8056 218.759 85.3555 223.82C85.2857 223.292 85.2408 222.569 85.0863 221.871C81.9701 207.442 81.4865 192.888 82.8826 178.215C83.9845 166.658 85.7993 155.22 88.347 143.902C89.2993 139.684 90.5358 135.526 91.6875 131.353C91.9567 130.376 92.2459 129.329 92.8243 128.531C93.4326 127.688 94.4148 126.542 95.2025 126.562C96.0501 126.582 97.2517 127.649 97.6256 128.541C98.4483 130.515 99.1962 132.639 99.3557 134.748C99.964 142.855 100.627 150.982 100.722 159.104C100.881 173.289 98.9369 187.299 96.3194 201.214C94.5793 210.478 92.6598 219.707 90.9048 228.965C90.6804 230.147 90.5258 231.688 91.0792 232.615C94.4646 238.264 98.6029 243.365 103.434 248.091C103.409 247.498 103.444 246.895 103.349 246.316C100.797 230.471 101.26 214.606 103.115 198.751C103.823 192.684 104.93 186.661 105.917 180.628C108.654 163.94 113.859 147.996 120.516 132.5C121.418 130.401 122.211 128.217 123.387 126.277C125.078 123.49 127.605 123.585 128.797 126.582C129.769 129.02 130.462 131.727 130.537 134.34C130.722 140.816 130.781 147.328 130.353 153.789C129.525 166.244 128.548 178.713 125.606 190.889C121.184 209.207 116.966 227.594 110.165 245.234C109.098 247.996 107.797 250.609 108.874 253.645C109.118 254.338 109.253 255.196 109.736 255.655C113.221 258.975 116.781 262.211 120.999 266.095C121.154 261.732 121.423 258.252 121.383 254.777C121.144 234.51 125.103 215.115 132.666 196.313C138.45 181.934 146.347 168.782 154.519 155.734C155.242 154.582 156.174 153.56 157.575 151.74C158.139 154.004 158.797 155.489 158.827 156.995C158.916 161.183 159.226 165.446 158.602 169.554C153.572 202.76 144.433 234.704 128.862 264.619C127.954 266.314 126.927 267.925 125.751 269.944ZM107.403 243.414C108.505 239.645 109.507 236.434 110.384 233.188C116.652 209.95 123.417 186.805 125.018 162.604C125.606 153.719 126.025 144.82 126.384 135.92C126.474 133.746 126.02 131.552 125.761 128.77C112.783 147.547 101.056 221.048 107.403 243.414ZM155.91 158.366C133.618 189.807 124.644 225.191 124.629 263.243C140.678 229.948 151.228 195.027 155.91 158.366ZM23.636 268.807C33.1589 273.25 54.593 278.136 70.6722 279.392C85.5001 280.549 111.247 277.258 117.454 273.06C107.408 271.235 97.476 268.897 87.2501 268.852C66.185 268.762 45.1199 268.817 23.636 268.807ZM13.0811 241.759C28.9061 252.972 67.7555 258.108 95.2972 251.417C82.5684 248.435 69.8048 245.633 57.0161 242.941C46.6157 240.752 36.0756 240.448 25.5007 240.912C21.3575 241.091 17.2193 241.47 13.0811 241.759ZM87.659 220.684C88.0229 220.744 88.3869 220.809 88.7508 220.868C90.9845 201.02 93.5173 181.196 95.3172 161.313C96.105 152.613 95.4469 143.778 95.3421 135.008C95.3272 133.756 95.5814 132.236 94.1704 130.954C93.8763 131.817 93.622 132.375 93.4974 132.958C91.3086 143.159 88.8705 153.316 87.0308 163.581C84.8071 176.001 83.6703 188.55 84.6924 201.199C85.2259 207.766 85.9339 214.307 87.659 220.684ZM71.3404 197.555C71.4351 197.066 71.5996 196.578 71.6246 196.084C72.3525 181.994 73.3148 167.914 73.6987 153.814C74.0078 142.367 73.0206 130.954 70.3981 119.746C70.0092 118.091 69.4308 116.475 68.9422 114.84C68.0497 116.226 67.6908 117.517 67.5512 118.834C66.5989 127.683 65.5818 136.533 64.809 145.403C63.9714 155.041 63.7519 164.688 65.0283 174.326C66.0753 182.268 67.7057 190.051 71.3404 197.555ZM7.48692 184.502C17.309 195.75 28.1632 205.791 41.1263 213.39C54.1892 221.043 75.708 229.579 82.5485 229.718C58.6664 212.702 33.7123 197.625 7.48692 184.502ZM48.9241 92.5633C48.5501 92.5633 48.1713 92.5633 47.7973 92.5633C47.1592 101.039 46.3714 109.51 45.9077 117.996C45.1199 132.51 45.8828 146.934 49.0687 161.168C49.5573 163.352 50.0509 165.526 52.0353 167.755C52.0652 166.149 52.1001 165.162 52.105 164.175C52.13 156.561 52.0751 148.943 52.1848 141.33C52.3843 127.354 52.135 113.399 50.36 99.5136C50.0559 97.1752 49.4127 94.8768 48.9241 92.5633ZM34.3705 124.582C34.3805 124.094 34.4154 123.605 34.3905 123.121C33.8669 110.926 33.4581 98.7258 32.7651 86.5405C32.3513 79.316 31.5186 72.1165 30.7956 64.912C30.6511 63.496 30.1375 62.1149 29.7935 60.7139C26.0043 75.6315 28.6717 112.442 34.3705 124.582ZM55.8793 193.347C48.2859 182.647 16.4614 148.12 12.3681 145.837C23.8305 164.778 37.9852 180.812 55.8793 193.347ZM41.9888 156.237C33.6426 139.021 25.2913 121.8 16.9451 104.584C20.7243 123.989 29.1055 141.195 41.9888 156.237Z" fill="#948976"/>
<path d="M227.477 47.4519C237.084 51.2012 246.233 56.1222 254.674 62.0703C263.11 68.0134 270.843 74.9936 277.474 82.931C284.081 90.8734 289.575 99.808 293.28 109.49C295.129 114.327 296.535 119.342 297.388 124.463C298.235 129.583 298.54 134.794 298.285 139.979C297.792 150.339 295.054 160.675 289.864 169.734C287.262 174.246 284.061 178.439 280.316 182.074C278.432 183.879 276.462 185.594 274.363 187.14C272.264 188.685 270.085 190.116 267.822 191.408C265.548 192.674 263.21 193.821 260.822 194.853C258.424 195.86 255.986 196.752 253.513 197.54C251.035 198.313 248.522 198.966 245.994 199.539C243.461 200.103 240.908 200.537 238.346 200.896C235.778 201.245 233.205 201.494 230.628 201.673C228.045 201.838 225.462 201.928 222.88 201.943C220.297 201.933 217.714 201.858 215.137 201.713C212.559 201.559 209.991 201.334 207.429 201.035L207.444 200.896C210.011 201.085 212.584 201.225 215.157 201.304C217.729 201.369 220.302 201.369 222.87 201.299C225.437 201.22 228.005 201.085 230.563 200.861C233.121 200.621 235.668 200.322 238.201 199.923C248.312 198.323 258.289 195.326 267.124 190.191C275.974 185.14 283.567 177.871 288.668 169.041C293.813 160.236 296.595 150.12 297.168 139.924C297.453 134.818 297.188 129.683 296.386 124.632C295.583 119.582 294.227 114.616 292.432 109.82C288.832 100.217 283.452 91.3172 276.941 83.3847C270.429 75.4373 262.791 68.4223 254.435 62.4243C246.079 56.4214 236.99 51.4256 227.432 47.5915L227.477 47.4519Z" fill="#948976"/>
<path d="M218.368 22.3381C225.238 27.304 232.094 32.3048 238.63 37.7194C240.251 39.0905 241.891 40.4367 243.461 41.8626C244.249 42.5706 245.057 43.2636 245.83 43.9916L248.138 46.1853C248.921 46.9033 249.659 47.6661 250.402 48.4289C251.145 49.1918 251.892 49.9397 252.625 50.7125L254.759 53.0807C255.113 53.4746 255.477 53.8685 255.821 54.2673L256.833 55.4988L258.853 57.9718L260.742 60.5445L261.685 61.8308L262.557 63.167L264.302 65.8444L265.878 68.6265L266.665 70.0176L267.363 71.4585L268.754 74.3403L269.946 77.3118L270.539 78.7976C270.719 79.3012 270.874 79.8097 271.038 80.3183L271.532 81.8439L271.776 82.6068C271.851 82.861 271.911 83.1253 271.98 83.3796L272.778 86.4807L273.391 89.6218C274.119 93.8298 274.473 98.0977 274.483 102.371C274.478 106.643 274.079 110.906 273.401 115.119C273.207 116.171 273.062 117.228 272.833 118.27L272.14 121.396C271.596 123.461 271.068 125.535 270.385 127.559C269.054 131.617 267.498 135.611 265.579 139.425C263.664 143.244 261.515 146.939 259.157 150.494C256.759 154.024 254.151 157.404 251.394 160.65C248.637 163.896 245.7 166.987 242.604 169.909C239.518 172.83 236.317 175.642 232.986 178.275C229.646 180.897 226.225 183.415 222.695 185.768L222.616 185.654C226.016 183.126 229.357 180.523 232.582 177.781C235.828 175.069 238.939 172.197 241.926 169.211C247.924 163.262 253.358 156.756 257.995 149.721C262.602 142.676 266.456 135.122 269.074 127.125C269.767 125.141 270.31 123.107 270.863 121.077L271.576 118.006C271.816 116.984 271.97 115.942 272.17 114.91C272.878 110.767 273.317 106.569 273.366 102.361C273.391 98.1526 273.077 93.9445 272.394 89.7963L271.816 86.6951L271.053 83.6338C270.988 83.3796 270.928 83.1203 270.858 82.871L270.624 82.1181L270.151 80.6124C269.991 80.1139 269.841 79.6053 269.672 79.1117L269.099 77.6409L267.952 74.6992L266.601 71.8424L265.923 70.4164L265.155 69.0354L263.619 66.2732L261.914 63.6108L261.061 62.2796L260.134 60.9982L258.279 58.4305L256.295 55.9625L255.303 54.726C254.964 54.3222 254.605 53.9333 254.261 53.5344L252.162 51.1562C251.444 50.3834 250.701 49.6255 249.973 48.8627C249.245 48.0949 248.517 47.3321 247.744 46.6041L245.466 44.3954C244.703 43.6625 243.905 42.9645 243.127 42.2515C241.577 40.8106 239.956 39.4495 238.356 38.0634C231.894 32.589 225.094 27.5134 218.283 22.4728L218.368 22.3381Z" fill="#948976"/>
<path d="M85.8294 300.168C85.8294 300.168 99.1416 293.163 109.652 279.497C120.162 265.831 123.552 249.308 123.552 249.308C123.552 249.308 115.171 247.473 112.194 247.842C102.642 249.018 98.7876 259.883 98.7876 259.883C98.7876 259.883 81.2175 238.085 79.8664 237.461C78.5202 236.838 86.6371 217.922 82.7332 216.506C78.8343 215.09 74.8058 212.413 74.8058 212.413C74.8058 212.413 80.5644 192.619 76.3613 173.349C72.1583 154.078 73.9083 140.766 73.5593 137.964C73.2103 135.162 64.6297 98.1225 66.5543 92.0697C68.4788 86.0169 63.7522 72.1015 71.4603 48.6233C79.1684 25.15 86.8764 17.7909 88.6265 16.3899C90.3765 14.9889 94.5347 13.6577 94.5347 13.6577C94.5347 13.6577 100.822 11.3493 105.095 6.57783C109.363 1.81138 111.751 -6.73432 119.459 -10.5884C127.167 -14.4424 145.036 -14.0934 148.89 -11.9894C152.744 -9.88536 158.697 -5.94157 160.527 -5.9316C162.357 -5.91665 168.858 -3.23427 172.712 -2.18226C176.566 -1.13025 188.827 -0.781247 192.332 0.270761C195.837 1.32277 196.535 7.27584 201.092 7.97884C205.649 8.68184 213.327 8.12343 216.159 11.1299C218.991 14.1363 227.018 33.5511 227.018 33.5511L239.004 59.617C239.004 59.617 239.757 65.256 237.239 65.8692C234.721 66.4825 225.966 77.3416 225.617 78.7426C225.268 80.1436 221.763 88.2007 221.763 88.2007C221.763 88.2007 240.684 111.674 241.731 117.278C242.783 122.882 241.028 130.59 238.58 139.35C236.127 148.11 231.251 159.274 230.872 163.527C230.493 167.779 225.617 183.146 224.565 184.901C223.513 186.651 218.607 201.718 217.909 203.468C217.206 205.218 214.758 228.342 214.055 231.144C213.352 233.946 210.201 242.357 207.748 244.81C205.295 247.263 189.53 262.331 189.53 262.331C189.53 262.331 192.122 277.004 201.864 283.505C211.602 290.007 246.288 298.418 246.288 298.418L197.941 300.168C197.941 300.168 186.379 296.314 181.826 300.871C177.269 305.428 175.44 310.145 171.102 310.763C166.759 311.381 156.603 320.49 151.348 317.339C146.093 314.188 137.682 302.626 132.781 302.272C127.875 301.923 101.251 298.418 101.251 298.418L85.8294 300.168Z" fill="#F9EFE0"/>
<path d="M112.493 99.1699C117.35 94.8472 122.644 91.2574 129.136 89.9362C136.585 88.4155 144.118 87.9219 151.707 88.5152C152.33 88.5651 152.963 88.5202 153.906 88.5202C152.315 87.0245 150.939 85.6534 149.473 84.377C144.497 80.0443 140.259 75.0585 136.495 69.6738C136.041 69.0257 135.662 68.8511 134.999 68.8661C129.455 68.9858 124.3 67.5598 119.444 64.9472C118.885 64.6481 118.357 64.2841 117.674 64.693C112.553 67.7742 107.218 70.5164 102.826 74.6945C98.9419 78.389 96.7631 83.0508 95.5117 88.0914C93.4924 96.2433 91.2289 104.29 88.2972 112.178C85.7444 119.048 85.2209 126.298 85.6796 133.627C86.248 142.746 86.9759 151.86 87.3399 161.034C87.639 159.763 87.8584 158.461 88.2623 157.225C88.9603 155.076 90.7353 153.73 92.59 153.805C93.2381 153.83 93.9162 153.884 94.2104 154.577C94.5245 155.32 94.0109 155.874 93.4824 156.168C90.7053 157.708 90.5308 160.391 90.2965 163.088C89.7281 169.59 91.6078 175.667 93.4625 181.755C94.5743 185.395 95.6712 189.044 96.7581 192.689C96.8877 193.128 97.3215 193.691 96.6185 194.005C96.0302 194.27 95.6861 193.761 95.3571 193.387C94.684 192.604 94.315 191.647 93.9361 190.705C91.2338 184.019 89.5436 177.048 88.0828 170.009C87.9581 169.41 87.998 168.757 87.4945 168.154C87.2701 173.578 87.8335 178.933 86.9061 184.592C86.0286 183.206 86.0237 181.88 85.9389 180.648C84.837 164.215 84.5478 147.732 82.8576 131.333C82.1347 124.348 83.0471 117.438 85.4154 110.832C87.998 103.637 90.2666 96.3779 91.7224 88.8593C92.4105 85.2994 93.8115 81.924 95.4369 78.6632C98.8222 71.8726 104.656 67.7942 111.157 64.4487C112.344 63.8404 113.56 63.287 114.757 62.6986C114.847 62.6538 114.892 62.5042 115.006 62.3247C113.56 61.1131 112.085 59.9116 110.654 58.6701C105.359 54.0682 101.215 48.514 97.6157 42.5509C96.788 41.1798 96.11 41.0851 94.7788 41.7432C88.8855 44.645 86.2181 48.7882 87.3599 55.9428C88.9354 65.8547 88.1227 75.597 86.9361 85.414C86.4873 89.0986 85.8441 92.808 86.5671 96.672C84.9267 96.3978 84.7173 95.0965 84.3982 94.0196C83.2066 90.0259 83.4011 85.8977 83.9545 81.8891C85.186 73.0492 84.9467 64.2841 83.8498 55.4542C82.7579 46.6642 87.3848 40.5915 94.34 38.5673C94.689 38.4675 95.2375 38.4625 95.0879 37.9291C94.4297 35.5558 95.1327 33.0629 94.1854 30.6647C93.4026 28.6804 93.1634 26.4766 92.7246 24.3626C92.1712 21.7102 92.1362 19.0627 92.8741 16.4302C92.939 16.3454 93.0038 16.2657 93.0736 16.1809C92.929 16.1759 92.7794 16.1759 92.6348 16.1709C87.0657 18.6788 83.2116 22.9816 80.1753 28.117C76.4259 34.4589 74.9352 41.5737 73.1503 48.5937C70.0241 60.8639 68.2292 73.2935 68.4935 85.9874C68.653 93.8451 69.9244 101.578 71.141 109.311C73.5192 124.418 74.7258 139.65 76.1368 154.857C77.3184 167.595 78.5 180.334 78.7244 193.138C78.8341 199.52 78.151 205.842 77.3633 212.159C77.1937 213.515 77.5029 214.407 78.854 215.065C79.8512 215.549 80.1703 213.575 81.1176 214.686C81.6411 215.3 81.8705 216.172 82.753 216.486C87.2751 218.102 91.1142 220.764 94.4397 224.194C94.5294 224.284 94.6192 224.379 94.7289 224.444C95.8008 225.102 96.9475 226.254 98.1591 225.581C99.3507 224.917 98.8272 223.362 98.7026 222.22C98.1691 217.159 96.8179 212.218 96.3642 207.143C96.2047 205.348 96.2546 203.588 96.6385 201.833C96.803 201.08 97.1022 200.397 98.1492 199.953C98.0295 203.608 98.6677 207.058 99.2012 210.528C99.7895 214.362 101.006 218.077 101.28 221.961C101.425 223.98 101.804 226.229 99.7396 227.515C97.5209 228.901 95.402 227.784 93.5173 226.558C91.8172 225.451 90.3015 224.06 88.6462 222.878C87.1454 221.806 85.5799 220.829 83.8199 220.206C83.3014 219.981 83.2365 220.171 83.4509 220.61C84.4281 225.964 83.3014 231.135 81.9652 236.255C81.4765 238.13 81.7657 239.212 83.4809 240.354C88.1576 243.465 91.3136 248.136 95.028 252.225C96.3842 253.715 97.6007 255.331 99.1014 257.156C100.812 252.11 105.01 250.056 108.829 247.578C109.228 247.319 110.659 247.259 109.402 246.137C108.988 245.768 109.382 245.24 109.931 245.275C111.441 245.369 111.152 244.467 110.973 243.564C109.681 237.138 108.121 230.761 107.817 224.17C107.722 222.145 107.817 220.171 109.013 218.226C109.597 220.515 110.275 222.783 110.743 225.092C112.08 231.693 113.884 238.215 114.363 244.975C114.413 245.678 114.777 245.938 115.37 246.162C116.497 246.586 117.629 247.035 118.701 247.578C119.897 248.186 120.187 247.862 120.211 246.571C120.321 240.947 119.429 235.403 119.03 229.823C118.776 226.284 117.469 223.816 114.622 221.612C106.291 215.17 102.153 206.066 99.3757 196.214C99.1713 195.486 98.917 194.768 98.6677 194.05C98.538 193.676 98.4035 193.218 98.7674 193.013C99.256 192.734 99.5651 193.143 99.8094 193.557C100.134 194.105 100.497 194.624 100.812 195.177C102.866 198.772 104.501 202.566 106.221 206.325C109.068 212.533 113.645 217.219 118.766 221.657C124.075 226.254 130.298 229.529 135.563 234.131C136.306 234.779 137.103 235.373 137.233 236.634C131.759 233.294 126.284 229.953 120.53 226.443C121.134 229.355 121.727 231.997 122.226 234.66C123.128 239.491 123.397 244.377 123.557 249.283C123.851 258.367 121.772 266.778 116.816 274.417C113.775 279.098 109.676 282.873 105.792 286.816C102.975 289.668 100.079 292.455 96.7183 294.679C96.0302 295.138 95.382 295.876 94.2852 295.611C94.6092 294.44 95.741 294.171 96.4091 293.458C101.884 287.589 107.428 281.766 112.394 275.474C117.584 268.897 120.052 261.184 120.206 252.758C120.226 251.626 119.882 250.993 118.81 250.629C116.542 249.866 114.667 248.271 112.199 247.812C110.933 247.578 110.115 247.802 109.292 248.54C105.952 251.547 102.292 254.244 101.076 259.005C100.572 260.96 98.9269 261.025 97.4162 259.379C93.8414 255.485 90.2815 251.582 86.7416 247.658C84.9417 245.663 83.0421 243.794 80.7387 242.378C78.6097 241.071 77.9117 239.172 78.5299 236.804C79.3326 233.727 80.2251 230.681 81.0278 227.605C81.666 225.172 81.6262 222.699 81.327 220.216C81.2223 219.348 80.8683 218.81 80.0456 218.531C79.4423 218.326 78.8789 218.022 78.2856 217.803C75.7678 216.86 74.5363 215.18 74.8205 212.378C75.1795 208.833 75.3988 205.273 75.6182 201.718C76.1966 192.534 75.2144 183.4 74.4864 174.271C73.2499 158.731 71.8788 143.195 70.4878 127.664C69.6851 118.719 68.2292 109.855 66.7135 101.005C63.7071 83.4097 65.2577 66.1189 69.9843 49.0225C71.6595 42.9598 72.9907 36.7923 75.6182 31.0237C77.9715 25.8634 80.9531 21.1468 85.4752 17.6168C87.8534 15.7621 90.2367 13.698 93.652 14.2364C94.1107 14.3112 94.3251 13.9173 94.5394 13.6232C95.6164 12.1623 97.0373 11.0904 98.538 10.1132C101.774 8.00416 104.581 5.4564 106.839 2.30536C107.208 1.79182 107.602 1.26831 108.086 0.869441C108.634 0.420717 109.058 -0.780866 109.791 -0.272312C110.464 0.196356 109.582 1.07386 109.367 1.77188C107.732 7.05186 104.207 10.7314 99.5203 13.4487C95.7909 15.6125 94.3799 18.8084 94.9881 23.1012C95.6612 27.8378 97.0473 32.3898 98.1292 37.0216C98.2539 37.5601 98.3935 38.0039 99.0117 38.0936C99.3557 38.1435 99.7546 38.3578 99.6399 38.662C98.8821 40.6613 100.657 41.479 101.53 42.6257C105.428 47.7561 109.602 52.6323 114.717 56.6359C121.273 61.7713 128.608 64.7179 136.974 65.2015C141.606 65.4708 146.257 65.5705 150.844 66.4081C151.074 66.448 151.288 66.5427 151.532 66.8419C147.319 69.1902 142.623 68.7215 137.926 68.9608C146.841 77.9503 155.72 86.6555 166.211 93.531C176.332 100.162 184.324 108.688 189.445 119.781C191.474 124.174 193.533 128.561 195.173 133.103C198.409 142.068 203.754 149.826 208.814 157.753C208.904 157.893 209.084 157.973 209.777 158.521C209.777 155.37 209.792 152.683 209.772 150C209.667 136.02 206.112 123.107 198.035 111.54C193.673 105.288 189.355 98.9805 186.633 91.766C186.299 90.8835 186.004 89.9861 185.71 89.0886C185.68 88.9939 185.77 88.8543 185.81 88.7197C186.593 88.4554 186.608 89.2132 186.782 89.5573C190.826 97.395 195.951 104.52 201.321 111.465C210.719 123.605 214.877 137.232 213.317 152.538C213.122 154.463 214.753 155.041 215.795 155.315C218.268 155.963 219.404 157.519 219.983 159.753C220.636 162.275 220.556 164.848 219.993 167.336C218.387 174.421 216.273 181.346 213.162 187.933C212.509 189.319 211.681 190.615 210.564 191.677C209.941 192.27 209.328 192.978 208.077 192.829C209.049 190.924 210.051 189.149 210.889 187.294C214.533 179.202 215.715 170.617 215.655 161.842C215.64 159.344 214.882 158.905 212.793 159.264C211.896 159.419 211.467 160.067 211.123 160.69C210.525 161.767 210.086 161.707 209.213 160.924C205.793 157.878 203.28 154.119 200.792 150.344C199.975 149.103 199.451 148.749 198.02 149.661C194.739 151.765 191.055 153.062 187.365 154.283C183.965 155.41 180.575 154.911 177.189 154.179C174.517 153.6 171.84 153.062 169.157 152.523C168.215 152.334 167.273 152.274 166.335 152.618C165.737 152.837 165.119 152.768 164.929 152.084C164.755 151.451 165.358 151.367 165.797 151.087C167.836 149.806 169.965 150.275 172.074 150.649C180.256 152.114 183.531 151.73 192.481 148.39C190.367 147.218 188.313 146.082 186.264 144.945C186.348 144.765 186.433 144.591 186.518 144.411C189.33 144.287 191.873 145.214 194.296 146.605C194.625 146.795 194.929 147.029 195.248 147.238C196.23 147.881 197.367 147.647 198.08 147.079C198.708 146.58 197.756 145.862 197.432 145.314C195.084 141.36 193.319 137.127 191.479 132.934C190.935 131.697 190.387 131.453 188.926 131.583C183.287 132.091 178.351 134.654 173.176 136.519C171.735 137.037 170.299 137.566 168.748 137.621C166.829 137.69 166.046 136.643 166.659 134.834C167.223 133.178 168.534 132.216 170.075 131.737C176.312 129.803 182.639 128.516 189.22 129.743C189.39 129.773 189.579 129.693 189.873 129.648C184.678 118.136 178.8 107.222 168.285 99.5937C164.161 96.6022 160.148 93.4661 156.134 90.3301C155.332 89.7019 154.524 89.6719 153.631 89.7368C147.289 90.2104 140.952 90.7738 134.606 91.1477C126.613 91.6164 119.962 94.9669 114.139 100.257C112.728 101.538 111.267 102.775 109.776 103.966C108.859 104.699 108.166 105.542 107.657 106.609C104.406 113.424 102.552 120.704 100.388 127.893C98.0245 135.746 96.7731 143.833 95.0879 151.825C94.9582 152.438 94.8336 153.002 94.2004 153.635C93.5622 151.486 94.1256 149.512 94.3799 147.682C95.8956 136.728 97.2567 125.734 100.283 115.055C104.347 100.721 112.005 88.4604 122.096 77.6312C123.961 75.6319 125.631 73.4231 127.91 71.8576C128.533 71.4288 129.296 70.5663 130.088 71.3042C130.891 72.057 130.063 72.8398 129.665 73.5029C126.229 79.1818 121.932 84.2474 118.127 89.662C116.043 92.6285 113.86 95.5253 112.109 98.7162C112.02 98.8857 111.935 99.0503 111.845 99.2198C111.79 99.3444 111.731 99.4691 111.676 99.5937C111.805 99.5439 111.935 99.489 112.065 99.4392C112.219 99.3793 112.359 99.2746 112.493 99.1699Z" fill="#948976"/>
<path d="M144.921 238.478C145.47 237.716 146.232 238.1 146.881 238.045C152.395 237.601 157.949 237.87 163.448 237.028C166.031 236.634 168.354 235.771 170.518 234.365C179.313 228.641 187.405 222.06 194.371 214.207C198.808 209.202 201.595 203.159 204.158 197.036C204.327 196.627 204.507 196.219 204.646 195.795C204.866 195.142 205.2 194.583 205.987 194.733C206.81 194.887 206.83 195.625 206.805 196.254C206.78 197.076 206.755 197.929 206.531 198.707C204.143 206.838 204.013 215.125 204.666 223.481C205.15 229.634 205.868 235.791 204.427 241.924C204.227 242.771 203.769 243.589 203.968 244.526C204.756 244.761 204.93 244.063 205.26 243.684C209.812 238.424 212.334 232.316 213.177 225.416C214.334 215.962 215.685 206.524 218.572 197.41C220.182 192.32 222.166 187.354 223.842 182.283C227.436 171.404 227.581 160.281 226.025 149.053C225.861 147.856 225.776 146.65 225.637 145.448C225.627 145.358 225.467 145.283 225.357 145.189C224.784 145.652 224.983 146.67 223.986 146.984C223.647 144.251 223.383 141.579 223.348 138.877C223.268 132.764 223.782 126.631 223.184 120.544C221.952 108.059 217.39 96.6118 211.661 85.5882C208.156 78.8474 203.804 72.64 199.267 66.5673C191.115 55.6583 185.012 43.5328 178.351 31.7313C174.133 24.2576 169.86 16.8038 165.069 9.66408C164.77 9.22034 164.171 8.61207 164.685 8.14839C165.378 7.53015 165.807 8.41264 166.206 8.80153C168.584 11.1299 170.498 13.8272 172.403 16.5345C176.84 22.8366 181.088 29.2733 184.643 36.1089C191.005 48.3491 198.653 59.7517 206.71 70.9049C207.967 72.645 209.124 74.4648 210.445 76.4193C210.729 75.2127 210.201 74.3701 209.956 73.5075C205.489 57.6028 197.447 43.5328 187.675 30.3702C181.033 21.4256 174.497 12.3913 166.679 4.39406C163.782 1.4275 160.711 -1.3147 157.445 -3.8824C150.5 -9.34188 142.543 -11.6852 133.848 -11.9096C133.085 -11.9295 132.322 -11.8896 131.589 -12.1838C131.2 -12.3384 130.632 -12.2885 130.662 -12.9217C130.697 -13.5998 131.28 -13.4352 131.674 -13.5001C136.7 -14.3127 141.68 -14.1482 146.631 -12.9067C151.782 -11.6154 156.324 -9.11752 160.537 -5.95152C161.11 -5.52274 161.673 -4.69509 162.366 -5.93656C162.641 -6.43016 163.284 -6.12602 163.773 -5.95651C165.567 -5.31832 167.407 -4.78982 169.157 -4.04195C173.834 -2.04762 178.705 -1.33465 183.726 -1.7734C189.16 -2.24705 193.922 -1.0006 197.861 2.96313C200.927 6.04936 204.542 7.75949 209.029 8.05366C213.222 8.32788 216.478 10.7709 219.005 14.1214C220.745 16.4298 222.067 18.9726 223.069 21.66C226.928 32.0504 231.45 42.1417 236.336 52.0835C237.518 54.4866 238.46 56.9845 239.024 59.6021C239.537 61.9704 239.258 64.209 237.259 65.8543C230.308 71.588 227.297 79.8645 223.238 87.4678C222.725 88.4301 223.408 88.8489 223.917 89.3924C229.67 95.5499 234.746 102.211 239.258 109.341C244.992 118.4 245.495 127.758 241.751 137.645C239.452 143.708 236.271 149.407 234.506 155.679C233.36 159.767 231.824 163.731 230.513 167.765C229.755 170.098 229.68 172.641 229.157 175.064C228.015 180.369 226.369 185.539 223.991 190.41C219.005 200.631 216.727 211.475 215.844 222.723C215.306 229.589 214.503 236.424 210.39 242.332C206.361 248.116 201.755 253.361 196.175 257.694C194.729 258.821 193.603 260.466 191.539 260.94C191.489 259.464 192.536 258.681 193.074 257.669C194.67 254.697 196.27 251.731 197.97 248.814C200.932 243.729 201.824 238.189 201.545 232.441C201.196 225.346 200.129 218.281 200.877 211.091C198.913 213.809 196.824 216.351 194.495 218.685C194.221 218.959 193.982 219.248 194.101 219.687C195.163 223.691 194.45 227.789 194.719 231.837C195.019 236.25 194.969 240.682 195.846 245.06C194.964 245.284 194.959 244.661 194.784 244.242C192.765 239.466 192.481 234.385 192.227 229.31C192.122 227.215 192.286 225.111 192.331 223.012C192.341 222.589 192.561 222.06 192.017 221.841C191.504 221.631 191.264 222.175 190.92 222.409C188.702 223.95 187.949 225.959 188.078 228.731C188.647 240.887 189.499 253.002 191.713 264.988C192.486 269.156 194.291 272.806 197.048 276.017C198.913 278.191 200.593 280.519 202.617 282.553C202.901 282.837 203.47 283.126 203.086 283.63C202.707 284.129 202.263 283.6 201.884 283.485C199.815 282.872 198.215 281.521 196.679 280.065C192.072 275.688 189.415 270.268 188.427 264.066C186.568 252.379 184.499 240.697 185.446 228.766C185.476 228.407 185.655 227.963 185.236 227.744C184.823 227.53 184.533 227.918 184.244 228.138C181.652 230.092 179.089 232.087 176.476 234.011C167.557 240.573 157.6 241.689 147.045 239.525C146.267 239.391 145.415 239.261 144.921 238.478ZM164.271 -3.11957C164.241 -3.20433 164.211 -3.28909 164.181 -3.37385C164.117 -3.33396 164.052 -3.28909 163.992 -3.2492C164.082 -3.20433 164.171 -3.15946 164.266 -3.1096C164.446 -2.90518 164.62 -2.70076 164.8 -2.49635C166.43 -0.801166 168.105 0.8641 169.691 2.59917C178.296 12.0323 185.466 22.5624 192.76 32.9927C203.175 47.8854 210.729 64.0694 214.523 81.9186C214.867 83.549 214.992 85.2791 216.263 86.6402C217.49 83.4892 217.993 78.1942 217.574 74.8039C216.682 67.6043 215.266 60.4945 213.98 53.3598C212.663 46.0456 211.487 38.7115 211.113 31.2776C211.088 30.799 210.639 30.096 211.267 29.9614C211.98 29.8068 211.951 30.5995 212.06 31.143C214.558 43.1887 217.265 55.1846 219.529 67.2803C220.905 74.6244 221.114 81.8089 217.988 88.7841C217.42 90.0555 218.013 90.918 218.552 91.6559C222.864 81.3054 225.716 70.0274 236.665 63.9398C237.807 63.3065 237.857 62.1897 237.488 61.0879C237.249 60.3699 236.865 59.6918 236.486 59.0387C230.961 49.5556 226.714 39.4843 222.665 29.3132C220.975 25.0653 219.703 20.6379 217.235 16.724C215.121 13.3685 212.21 10.8607 208.201 10.7659C203.161 10.6463 199.227 8.64697 195.961 5.07712C192.73 1.54716 188.801 0.240871 184.105 0.754412C181.392 1.05356 178.67 1.26795 175.923 0.889029C172.074 0.355546 168.659 -1.35459 165.174 -2.88025C164.904 -3.09464 164.63 -3.26915 164.271 -3.11957ZM233.469 150.927C235.693 145.328 237.548 139.62 239.173 133.806C241.497 125.5 239.781 117.976 235.573 110.752C232.647 105.736 229.137 101.124 225.801 96.3875C224.629 94.7222 223.443 93.0669 222.281 91.3917C221.857 90.7784 221.548 90.6139 221.05 91.3618C219.988 92.9373 219.464 94.3084 220.332 96.3925C224.57 106.588 227.157 117.133 226.704 128.317C226.579 131.373 226.389 134.424 227.177 137.605C228.523 143.05 229.585 148.609 230.174 154.233C231.849 146.829 233.36 139.425 235.803 132.255C236.381 133.846 235.763 135.302 235.563 136.783C234.93 141.484 233.749 146.096 233.37 150.843C232.961 151.237 232.976 151.67 233.32 152.289C233.385 151.735 233.429 151.331 233.469 150.927ZM203.938 245.07C203.898 245.025 203.859 244.98 203.819 244.935C203.779 244.98 203.739 245.02 203.699 245.065C203.759 245.11 203.819 245.154 203.878 245.199C203.898 245.159 203.918 245.115 203.938 245.07Z" fill="#948976"/>
<path d="M222.575 124.069C222.007 125.619 223.129 127.484 221.748 127.793C220.9 127.983 220.93 125.849 220.581 124.767C218.626 118.649 216.817 112.487 214.832 106.384C212.025 97.7535 206.626 90.7982 200.368 84.4164C191.179 75.0381 180.949 66.7766 171.6 57.5777C163.149 49.2663 155.202 40.4913 148.217 30.8886C147.598 30.041 146.168 28.8095 147.14 28.0168C148.371 27.0096 148.92 28.9242 149.578 29.6521C156.229 37.0262 162.785 44.4949 169.85 51.4801C177.095 58.6447 184.877 65.2359 192.406 72.1014C198.763 77.8949 205 83.8231 210.3 90.6337C218.033 100.58 221.015 112.242 222.575 124.069Z" fill="#948976"/>
<path d="M175.579 205.128C174.378 205.118 173.695 203.892 172.389 204.071C173.406 206.36 171.586 207.302 170.299 208.404C162.372 215.21 153.677 216.082 144.438 211.425C140.739 209.561 136.954 207.721 134.387 204.206C134.162 203.897 133.589 203.857 133.19 203.667C132.572 203.373 132.472 203.009 133.065 202.556C136.75 199.739 140.3 196.717 144.383 194.474C147.041 193.013 149.878 192.409 152.799 193.746C153.417 194.03 153.757 193.761 154.165 193.491C156.753 191.781 159.53 191.731 162.158 193.092C167.243 195.725 171.506 199.439 175.191 203.817C175.445 204.116 175.834 204.465 175.579 205.128ZM169.96 202.142C167.956 200.751 166.366 199.599 164.725 198.522C161.644 196.493 158.388 195.376 154.624 196.473C153.363 196.842 151.962 197.096 150.68 196.937C145.784 196.333 142.409 199.39 138.63 201.524C140.016 201.758 141.327 201.683 142.653 201.538C145.37 201.239 148.093 201.01 150.835 201.304C151.528 201.379 152.181 201.678 152.296 202.326C152.435 203.134 151.623 203.343 151.034 203.493C149.743 203.822 148.427 204.006 147.08 204.061C143.376 204.221 139.677 204.615 135.922 204.56C138.47 205.786 140.654 207.591 143.182 208.688C147.669 210.638 152.296 212.338 157.321 211.66C160.742 211.201 163.653 209.446 166.381 207.417C167.846 206.33 169.247 205.148 171.037 204.505C166.057 204.769 161.225 203.657 156.329 203.189C155.312 203.094 153.333 203.313 153.403 202.202C153.492 200.741 155.352 201.384 156.454 201.304C160.856 201 165.194 201.877 169.96 202.142Z" fill="#948976"/>
<path d="M101.435 137.785C101.983 136.364 102.846 135.83 103.634 135.402C108.684 132.659 113.889 130.077 119.723 129.867C126.145 129.638 132.108 131.787 137.811 134.614C138.724 135.068 139.462 135.81 140.04 136.673C141.192 138.388 140.564 139.665 138.519 139.779C137.223 139.849 136.002 139.475 134.785 139.081C130.732 137.765 126.673 136.449 122.625 135.112C118.616 133.786 114.627 133.866 110.624 135.167C107.697 136.115 104.775 137.097 101.435 137.785Z" fill="#948976"/>
<path d="M92.7745 298.772C93.3678 298.243 93.9561 298.064 94.6043 298.039C104.152 297.655 113.7 297.53 123.163 299.081C129.49 300.118 135.119 302.915 140.269 306.694C140.579 306.919 140.873 307.168 141.142 307.437C141.521 307.816 142.244 308.175 141.895 308.778C141.521 309.427 140.728 309.212 140.16 308.978C138.814 308.419 137.428 307.891 136.201 307.118C129.36 302.83 121.827 301.165 113.865 300.886C106.944 300.642 100.049 300.003 93.1784 299.121C93.0786 299.101 92.9989 298.971 92.7745 298.772Z" fill="#948976"/>
<path d="M152.674 299.605C149.548 299.315 146.711 297.421 144.328 294.718C143.879 294.21 143.77 293.497 144.149 292.939C144.657 292.196 145.42 292.525 146.043 292.804C147.549 293.482 149.035 294.2 150.51 294.938C152.405 295.885 154.09 295.551 155.571 294.11C158.941 290.835 162.277 287.519 165.657 284.253C166.704 283.241 167.841 282.309 168.963 281.376C169.272 281.122 169.631 280.653 170.11 281.037C170.578 281.416 170.209 281.825 170.06 282.234C168.699 285.943 166.37 289.03 163.773 291.921C161.823 294.095 159.854 296.269 157.481 298.009C156.239 298.927 154.848 299.535 152.674 299.605Z" fill="#948976"/>
<path d="M214.783 298.887C212.988 300.263 211.357 300.168 209.877 300.293C203.29 300.856 196.699 301.35 190.103 301.754C184.065 302.123 178.85 304.182 174.732 308.724C174.303 309.193 173.854 309.651 173.36 310.05C172.707 310.584 172.044 311.586 171.107 310.758C170.224 309.98 170.957 309.073 171.421 308.365C174.642 303.469 179.259 300.567 184.957 299.63C193.708 298.194 202.528 297.975 211.372 298.707C212.315 298.792 213.262 298.812 214.783 298.887Z" fill="#948976"/>
<path d="M115.001 148.32C113.111 149.347 111.222 150.374 109.108 151.531C110.14 152.164 111.102 151.959 111.965 152.129C118.84 153.495 125.691 153.705 132.536 151.825C133.857 151.461 135.308 151.381 136.669 151.87C137.148 152.039 137.647 152.333 137.647 152.927C137.642 153.62 137.038 153.665 136.545 153.695C130.741 154.014 125.312 156.372 119.528 156.816C115.27 157.14 111.167 156.541 107.168 155.106C106.146 154.737 105.204 154.203 104.386 153.48C104.097 153.226 103.818 152.952 103.918 152.508C104.032 151.989 104.471 152.034 104.825 152.059C105.747 152.129 106.306 151.536 106.994 151.072C109.377 149.462 111.965 148.33 115.001 148.32Z" fill="#948976"/>
<path d="M243.741 298.343C241.302 298.094 238.999 297.595 236.74 296.942C230.224 295.062 223.712 293.158 217.211 291.218C216.279 290.939 214.658 290.635 214.893 289.698C215.157 288.636 216.573 289.404 217.51 289.528C226.076 290.665 234.078 293.671 242.015 296.892C242.654 297.152 243.551 297.196 243.741 298.343Z" fill="#948976"/>
<path d="M97.4313 185.22C96.0303 182.797 95.6663 180.1 95.1279 177.467C94.5296 174.55 94.1057 171.599 93.6121 168.662C93.5723 168.413 93.5573 168.154 93.5723 167.904C93.5922 167.416 93.4177 166.787 94.0709 166.613C94.8437 166.409 94.8088 167.181 94.9633 167.575C96.3295 171.015 97.0474 174.61 97.4911 178.275C97.7654 180.583 97.895 182.877 97.4313 185.22Z" fill="#948976"/>
<path d="M209.014 178.703C209.228 175.627 209.662 172.755 210.854 170.048C211.163 169.34 211.502 168.657 212.145 168.213C212.718 167.814 213.362 167.396 214.03 168.019C214.738 168.682 213.79 168.951 213.651 169.42C213.147 171.05 212.698 172.695 212.16 174.316C211.641 175.871 211.073 177.417 210.44 178.933C210.255 179.372 210.111 180.204 209.313 179.91C208.655 179.656 209.193 178.983 209.014 178.703Z" fill="#948976"/>
<path d="M160.906 181.351C160.432 181.256 159.739 181.152 159.066 180.967C158.343 180.768 157.461 180.623 157.665 179.541C157.835 178.629 158.453 178.105 159.375 178.001C161.021 177.806 162.322 178.599 163.563 179.521C164.092 179.915 163.808 180.284 163.449 180.608C162.786 181.206 161.958 181.276 160.906 181.351Z" fill="#948976"/>
<path d="M170.992 147.642C170.524 147.632 170.12 147.512 169.9 147.034C169.636 146.465 169.855 146.022 170.294 145.698C171.755 144.611 173.52 144.207 175.22 143.763C175.998 143.564 175.744 144.401 175.569 144.835C175.106 145.972 172.254 147.697 170.992 147.642Z" fill="#948976"/>
<path d="M148.576 177.891C149.374 178.05 150.695 178 150.536 179.252C150.371 180.558 148.99 180.832 147.848 180.907C147.006 180.962 146.093 180.668 146.143 179.561C146.208 178.11 147.315 177.931 148.576 177.891Z" fill="#948976"/>
<path d="M132.417 149.317C130.048 149.696 128.443 148.759 126.892 147.682C126.563 147.457 126.334 147.108 126.509 146.699C126.783 146.061 127.406 146.201 127.83 146.345C129.495 146.924 130.966 147.831 132.417 149.317Z" fill="#948976"/>
<path d="M185.286 174.231C161.733 171.893 182.18 154.911 194.675 157.379C216.009 162.878 197.955 176.564 185.286 174.231Z" fill="#D8C8BB"/>
<path d="M116.387 176.849C94.0059 177.287 97.0922 156.566 117.958 160.824C133.788 163.153 132.422 179.83 116.387 176.849Z" fill="#D8C8BB"/>
</g>
</svg>
